<svg width="105" height="56" viewBox="0 0 105 56" fill="none" xmlns="http://www.w3.org/2000/svg">
  <mask id="mask0_2412_6384" style="mask-type:luminance" maskUnits="userSpaceOnUse" x="0" y="0" width="25" height="56">
    <path
      d="M17.8551 0.000935987C17.9243 -0.0144423 17.6936 0.154719 16.6248 0.8775C12.0575 3.96085 8.94337 6.89811 7.67466 9.29713C6.85961 10.858 6.74427 12.1267 7.32865 13.3647C8.09756 15.0179 9.87376 16.2174 13.4185 17.4784C14.0797 17.7168 14.6795 17.909 14.741 17.909C14.8025 17.909 15.0409 17.6552 15.2792 17.34C15.9251 16.4634 15.8713 16.4865 17.4091 16.3788C19.4083 16.2481 21.8227 16.1405 23.1683 16.1405H24.3755L24.4216 24.537C24.4447 29.1582 24.4908 38.1238 24.5139 44.452L24.56 55.9703H24.214C23.6297 55.9703 22.1457 55.755 21.3844 55.5551C20.654 55.3629 19.6544 54.9784 19.3391 54.7708C19.2392 54.7093 18.9777 54.2864 18.747 53.8327C18.5164 53.3714 18.278 52.9638 18.2242 52.91C18.1627 52.8639 17.5245 52.6025 16.8094 52.3256C16.0943 52.0565 15.4176 51.7951 15.3023 51.7566C15.1716 51.7028 15.0409 51.5567 14.964 51.3799C14.7564 50.8801 13.1647 46.1128 13.1647 45.9744C13.1647 45.9052 13.257 45.7668 13.3646 45.6591C13.48 45.5592 13.826 45.1747 14.1336 44.8056C14.641 44.1982 14.6949 44.0982 14.741 43.7061C14.8333 42.9833 14.7333 41.0072 14.5565 40.0153C13.8491 36.0938 12.3881 32.4338 10.4428 29.7272C10.2044 29.3966 10.0122 29.1044 10.0122 29.0736C10.0122 29.0429 10.1198 28.7507 10.2505 28.4201C10.3812 28.0894 10.4735 27.8049 10.4504 27.7819C10.4274 27.7588 10.1198 27.828 9.7738 27.9356C7.66697 28.5738 6.39057 28.7199 5.34485 28.4508C4.00694 28.1048 2.16154 27.2744 0.985096 26.4901C0.208492 25.9672 -0.106763 25.6596 0.0316417 25.5366C0.31614 25.3059 3.69937 24.168 5.3756 23.7451L6.39057 23.4836L5.18338 22.2534C3.83777 20.8847 3.17651 20.1004 2.3999 18.924C0.177735 15.5792 -0.260546 12.4112 1.11581 9.67389C1.58485 8.7512 2.12309 8.0361 3.09192 7.06727C4.55286 5.60633 5.98305 4.62981 8.43589 3.41492C10.7503 2.27693 13.1417 1.3773 16.2788 0.454596C17.1246 0.208543 17.832 0.000935987 17.8551 0.000935987Z"
      fill="white" />
  </mask>
  <g mask="url(#mask0_2412_6384)">
    <path d="M91.1354 -2.35449H-19.8184V55.7548H91.1354V-2.35449Z" fill="white" />
    <path d="M91.0428 -2.57324H-19.8179V2.02334H91.0428V-2.57324Z" fill="#D02032" />
    <path d="M91.0428 6.41895H-19.8179V11.0155H91.0428V6.41895Z" fill="#D02032" />
    <path d="M91.0428 15.4102H-19.8179V20.0067H91.0428V15.4102Z" fill="#D02032" />
    <path d="M91.0428 24.4014H-19.8179V28.9979H91.0428V24.4014Z" fill="#D02032" />
    <path d="M91.0428 33.3916H-19.8179V37.9882H91.0428V33.3916Z" fill="#D02032" />
    <path d="M91.0428 42.3838H-19.8179V46.9804H91.0428V42.3838Z" fill="#D02032" />
    <path d="M91.0428 51.375H-19.8179V55.9716H91.0428V51.375Z" fill="#D02032" />
    <path d="M24.4564 -2.57324H-19.8208V28.9984H24.4564V-2.57324Z" fill="#3B3971" />
    <path
      d="M2.38922 1.875L2.8029 3.16447H4.14389L3.05895 3.9603L3.4734 5.24977L2.38922 4.45317L1.30428 5.24977L1.71873 3.9603L0.633789 3.16447H1.97478L2.38922 1.875Z"
      fill="white" />
    <path
      d="M2.38922 8.20508L2.8029 9.49378H4.14389L3.05895 10.2904L3.4734 11.5791L2.38922 10.7833L1.30428 11.5791L1.71873 10.2904L0.633789 9.49378H1.97478L2.38922 8.20508Z"
      fill="white" />
    <path
      d="M2.38922 14.5342L2.8029 15.8229H4.14389L3.05895 16.6195L3.4734 17.9082L2.38922 17.1116L1.30428 17.9082L1.71873 16.6195L0.633789 15.8229H1.97478L2.38922 14.5342Z"
      fill="white" />
    <path
      d="M2.38922 20.8643L2.8029 22.153H4.14389L3.05895 22.9496L3.4734 24.2383L2.38922 23.4417L1.30428 24.2383L1.71873 22.9496L0.633789 22.153H1.97478L2.38922 20.8643Z"
      fill="white" />
    <path
      d="M9.7862 1.875L10.2006 3.16447H11.5416L10.4567 3.9603L10.8711 5.24977L9.7862 4.45317L8.70126 5.24977L9.1157 3.9603L8.03076 3.16447H9.37175L9.7862 1.875Z"
      fill="white" />
    <path
      d="M9.7862 8.20508L10.2006 9.49378H11.5416L10.4567 10.2904L10.8711 11.5791L9.7862 10.7833L8.70126 11.5791L9.1157 10.2904L8.03076 9.49378H9.37175L9.7862 8.20508Z"
      fill="white" />
    <path
      d="M9.7862 14.5342L10.2006 15.8229H11.5416L10.4567 16.6195L10.8711 17.9082L9.7862 17.1116L8.70126 17.9082L9.1157 16.6195L8.03076 15.8229H9.37175L9.7862 14.5342Z"
      fill="white" />
    <path
      d="M9.7862 20.8643L10.2006 22.153H11.5416L10.4567 22.9496L10.8711 24.2383L9.7862 23.4417L8.70126 24.2383L9.1157 22.9496L8.03076 22.153H9.37175L9.7862 20.8643Z"
      fill="white" />
    <path
      d="M17.1834 1.875L17.5978 3.16447H18.9388L17.8539 3.9603L18.2683 5.24977L17.1834 4.45317L16.0992 5.24977L16.5129 3.9603L15.4287 3.16447H16.7689L17.1834 1.875Z"
      fill="white" />
    <path
      d="M17.1834 8.20508L17.5978 9.49378H18.9388L17.8539 10.2904L18.2683 11.5791L17.1834 10.7833L16.0992 11.5791L16.5129 10.2904L15.4287 9.49378H16.7689L17.1834 8.20508Z"
      fill="white" />
    <path
      d="M17.1834 14.5342L17.5978 15.8229H18.9388L17.8539 16.6195L18.2683 17.9082L17.1834 17.1116L16.0992 17.9082L16.5129 16.6195L15.4287 15.8229H16.7689L17.1834 14.5342Z"
      fill="white" />
    <path
      d="M17.1834 20.8643L17.5978 22.153H18.9388L17.8539 22.9496L18.2683 24.2383L17.1834 23.4417L16.0992 24.2383L16.5129 22.9496L15.4287 22.153H16.7689L17.1834 20.8643Z"
      fill="white" />
    <path
      d="M-1.26047 -1.36426L-0.846025 -0.0755556H0.494962L-0.589976 0.721041L-0.175531 2.00974L-1.26047 1.21392L-2.34464 2.00974L-1.9302 0.721041L-3.01514 -0.0755556H-1.67415L-1.26047 -1.36426Z"
      fill="white" />
    <path
      d="M-1.26047 4.96582L-0.846025 6.25452H0.494962L-0.589976 7.05112L-0.175531 8.33982L-1.26047 7.54322L-2.34464 8.33982L-1.9302 7.05112L-3.01514 6.25452H-1.67415L-1.26047 4.96582Z"
      fill="white" />
    <path
      d="M-1.26047 17.625L-0.846025 18.9137H0.494962L-0.589976 19.7103L-0.175531 20.999L-1.26047 20.2024L-2.34464 20.999L-1.9302 19.7103L-3.01514 18.9137H-1.67415L-1.26047 17.625Z"
      fill="white" />
    <path
      d="M6.08796 -1.36426L6.5024 -0.0755556H7.84262L6.75845 0.721041L7.17212 2.00974L6.08796 1.21392L5.00301 2.00974L5.41746 0.721041L4.33252 -0.0755556H5.67351L6.08796 -1.36426Z"
      fill="white" />
    <path
      d="M6.08796 4.96582L6.5024 6.25452H7.84262L6.75845 7.05112L7.17212 8.33982L6.08796 7.54322L5.00301 8.33982L5.41746 7.05112L4.33252 6.25452H5.67351L6.08796 4.96582Z"
      fill="white" />
    <path
      d="M6.08796 11.2949L6.5024 12.5836H7.84262L6.75845 13.3802L7.17212 14.6689L6.08796 13.8723L5.00301 14.6689L5.41746 13.3802L4.33252 12.5836H5.67351L6.08796 11.2949Z"
      fill="white" />
    <path
      d="M6.08796 17.625L6.5024 18.9137H7.84262L6.75845 19.7103L7.17212 20.999L6.08796 20.2024L5.00301 20.999L5.41746 19.7103L4.33252 18.9137H5.67351L6.08796 17.625Z"
      fill="white" />
    <path
      d="M6.08796 23.9541L6.5024 25.2428H7.84262L6.75845 26.0386L7.17212 27.3281L6.08796 26.5315L5.00301 27.3281L5.41746 26.0386L4.33252 25.2428H5.67351L6.08796 23.9541Z"
      fill="white" />
    <path
      d="M13.4356 -1.36426L13.8501 -0.0755556H15.191L14.1061 0.721041L14.5206 2.00974L13.4356 1.21392L12.3507 2.00974L12.7651 0.721041L11.6802 -0.0755556H13.0212L13.4356 -1.36426Z"
      fill="white" />
    <path
      d="M13.4356 4.96582L13.8501 6.25452H15.191L14.1061 7.05112L14.5206 8.33982L13.4356 7.54322L12.3507 8.33982L12.7651 7.05112L11.6802 6.25452H13.0212L13.4356 4.96582Z"
      fill="white" />
    <path
      d="M13.4356 11.2949L13.8501 12.5836H15.191L14.1061 13.3802L14.5206 14.6689L13.4356 13.8723L12.3507 14.6689L12.7651 13.3802L11.6802 12.5836H13.0212L13.4356 11.2949Z"
      fill="white" />
    <path
      d="M13.4356 17.625L13.8501 18.9137H15.191L14.1061 19.7103L14.5206 20.999L13.4356 20.2024L12.3507 20.999L12.7651 19.7103L11.6802 18.9137H13.0212L13.4356 17.625Z"
      fill="white" />
    <path
      d="M13.4356 23.9541L13.8501 25.2428H15.191L14.1061 26.0386L14.5206 27.3281L13.4356 26.5315L12.3507 27.3281L12.7651 26.0386L11.6802 25.2428H13.0212L13.4356 23.9541Z"
      fill="white" />
    <path
      d="M20.9317 -1.36426L21.3461 -0.0755556H22.6864L21.6022 0.721041L22.0159 2.00974L20.9317 1.21392L19.8468 2.00974L20.2612 0.721041L19.1763 -0.0755556H20.5173L20.9317 -1.36426Z"
      fill="white" />
    <path
      d="M20.9317 4.96582L21.3461 6.25452H22.6864L21.6022 7.05112L22.0159 8.33982L20.9317 7.54322L19.8468 8.33982L20.2612 7.05112L19.1763 6.25452H20.5173L20.9317 4.96582Z"
      fill="white" />
    <path
      d="M20.9317 11.2949L21.3461 12.5836H22.6864L21.6022 13.3802L22.0159 14.6689L20.9317 13.8723L19.8468 14.6689L20.2612 13.3802L19.1763 12.5836H20.5173L20.9317 11.2949Z"
      fill="white" />
    <path
      d="M20.9317 17.625L21.3461 18.9137H22.6864L21.6022 19.7103L22.0159 20.999L20.9317 20.2024L19.8468 20.999L20.2612 19.7103L19.1763 18.9137H20.5173L20.9317 17.625Z"
      fill="white" />
    <path
      d="M20.9317 23.9541L21.3461 25.2428H22.6864L21.6022 26.0386L22.0159 27.3281L20.9317 26.5315L19.8468 27.3281L20.2612 26.0386L19.1763 25.2428H20.5173L20.9317 23.9541Z"
      fill="white" />
  </g>
  <path d="M25.6567 35.324V16.1761H33.3044V19.9077H29.5023V22.954H33.1089V26.6422H29.5023V35.324H25.6567Z" fill="#101828" />
  <path
    d="M34.4777 35.324V19.0047H38.4319V20.8216C38.6202 20.1906 38.9533 19.6974 39.4313 19.342C39.9093 18.9866 40.5104 18.8089 41.2346 18.8089V22.0619C40.9159 22.0619 40.5357 22.0982 40.0939 22.1707C39.6522 22.236 39.2647 22.3303 38.9316 22.4536C38.5984 22.5696 38.4319 22.7002 38.4319 22.8452V35.324H34.4777Z"
    fill="#101828" />
  <path
    d="M46.9269 35.4981C43.6824 35.4981 42.0602 33.8118 42.0602 30.4391V23.8897C42.0602 22.352 42.4911 21.1262 43.3529 20.2124C44.2147 19.2912 45.4061 18.8307 46.9269 18.8307C48.455 18.8307 49.65 19.2912 50.5118 20.2124C51.3736 21.1262 51.8045 22.352 51.8045 23.8897V30.4391C51.8045 33.8118 50.1786 35.4981 46.9269 35.4981ZM46.9269 32.4954C47.2528 32.4954 47.4846 32.3793 47.6222 32.1472C47.767 31.9079 47.8394 31.6069 47.8394 31.2442V23.2695C47.8394 22.3194 47.5352 21.8443 46.9269 21.8443C46.3186 21.8443 46.0144 22.3194 46.0144 23.2695V31.2442C46.0144 31.6069 46.0832 31.9079 46.2208 32.1472C46.3656 32.3793 46.601 32.4954 46.9269 32.4954Z"
    fill="#101828" />
  <path
    d="M53.2493 35.324V19.0047H57.1383V21.0827C57.2832 20.459 57.5511 19.9295 57.9422 19.4943C58.3405 19.0519 58.8909 18.8307 59.5934 18.8307C60.7232 18.8307 61.5415 19.1788 62.0485 19.8751C62.5627 20.5714 62.8198 21.5252 62.8198 22.7364V35.324H58.9851V23.139C58.9851 22.8198 58.9199 22.5261 58.7895 22.2577C58.6592 21.9821 58.4347 21.8443 58.116 21.8443C57.8191 21.8443 57.5982 21.9495 57.4534 22.1598C57.3158 22.3629 57.2289 22.6204 57.1926 22.9323C57.1564 23.2369 57.1383 23.5415 57.1383 23.8461V35.324H53.2493Z"
    fill="#101828" />
  <path
    d="M67.6974 35.4981C66.6473 35.4981 65.9375 35.2769 65.5682 34.8345C65.2061 34.3848 65.025 33.6994 65.025 32.7782V22.6059H63.9278V19.6358H65.025V16.1761H68.8054V19.6358H69.9026V22.6059H68.8054V31.8644C68.8054 32.1327 68.8489 32.3213 68.9358 32.4301C69.0227 32.5389 69.1892 32.5933 69.4355 32.5933C69.6093 32.5933 69.765 32.5788 69.9026 32.5498V35.2044C69.8157 35.2334 69.5441 35.2878 69.0879 35.3676C68.6316 35.4546 68.1681 35.4981 67.6974 35.4981Z"
    fill="#101828" />
  <path d="M71.1301 18.0038V14.7617H75.0192V18.0038H71.1301ZM71.1301 35.324V19.0047H75.0192V35.324H71.1301Z" fill="#101828" />
  <path
    d="M81.1243 35.4981C79.9656 35.4981 79.0422 35.2805 78.3542 34.8453C77.6662 34.4102 77.1737 33.7828 76.8768 32.9632C76.5798 32.1436 76.4314 31.1572 76.4314 30.004V23.4436C76.4314 21.9277 76.8659 20.7817 77.735 20.0057C78.604 19.2223 79.799 18.8307 81.3198 18.8307C84.4484 18.8307 86.0127 20.3683 86.0127 23.4436V24.6295C86.0127 26.0656 85.9983 27.0302 85.9693 27.5234H80.3204V30.6785C80.3204 30.9686 80.3385 31.2551 80.3747 31.538C80.4109 31.8136 80.4906 32.0421 80.6137 32.2234C80.7441 32.4047 80.9505 32.4954 81.2329 32.4954C81.6385 32.4954 81.892 32.3213 81.9934 31.9732C82.0947 31.6178 82.1454 31.1572 82.1454 30.5914V29.0248H86.0127V29.9496C86.0127 31.1681 85.8607 32.1907 85.5565 33.0176C85.2596 33.8372 84.7526 34.4573 84.0356 34.878C83.3259 35.2914 82.3555 35.4981 81.1243 35.4981ZM80.2987 25.5869H82.1454V23.3892C82.1454 22.8017 82.073 22.381 81.9282 22.1272C81.7833 21.8661 81.5661 21.7355 81.2764 21.7355C80.965 21.7355 80.7224 21.8588 80.5485 22.1054C80.382 22.352 80.2987 22.7799 80.2987 23.3892V25.5869Z"
    fill="#101828" />
  <path
    d="M87.425 35.324V19.0047H91.3792V20.8216C91.5675 20.1906 91.9006 19.6974 92.3786 19.342C92.8566 18.9866 93.4577 18.8089 94.1819 18.8089V22.0619C93.8632 22.0619 93.483 22.0982 93.0412 22.1707C92.5995 22.236 92.212 22.3303 91.8789 22.4536C91.5457 22.5696 91.3792 22.7002 91.3792 22.8452V35.324H87.425Z"
    fill="#101828" />
  <path
    d="M99.6026 35.4981C96.3871 35.4981 94.7794 33.8662 94.7794 30.6023V29.3077H98.6901V31.2225C98.6901 31.5924 98.7625 31.8825 98.9074 32.0928C99.0522 32.3032 99.284 32.4083 99.6026 32.4083C100.168 32.4083 100.45 31.984 100.45 31.1354C100.45 30.4246 100.301 29.8952 100.005 29.547C99.7076 29.1916 99.3455 28.8507 98.9182 28.5243L96.8434 26.925C96.1916 26.4173 95.6955 25.8806 95.3551 25.3149C95.0147 24.7491 94.8445 23.9622 94.8445 22.954C94.8445 22.0184 95.0654 21.2459 95.5072 20.6367C95.9562 20.0274 96.5464 19.5741 97.2779 19.2767C98.0166 18.9794 98.8132 18.8307 99.6678 18.8307C102.825 18.8307 104.404 20.4082 104.404 23.5633V23.8679H100.385V23.2478C100.385 22.9214 100.327 22.6059 100.211 22.3012C100.102 21.9966 99.8851 21.8443 99.5592 21.8443C99.0088 21.8443 98.7336 22.1344 98.7336 22.7147C98.7336 23.3022 98.9653 23.7627 99.4288 24.0964L101.84 25.8588C102.594 26.4028 103.224 27.0483 103.731 27.7954C104.245 28.5425 104.502 29.5361 104.502 30.7764C104.502 32.314 104.064 33.4854 103.187 34.2905C102.318 35.0956 101.123 35.4981 99.6026 35.4981Z"
    fill="#101828" />
  <path
    d="M25.6567 55.8263V36.6699H31.4887L33.099 48.3488L34.6985 36.6699H40.5849V55.8263H37.0813V42.025L34.8835 55.8263H31.4452L29.1168 42.025V55.8263H25.6567Z"
    fill="#101828" />
  <path
    d="M45.1873 56.0005C44.2806 56.0005 43.5879 55.79 43.1091 55.3692C42.6377 54.9483 42.3149 54.3714 42.1408 53.6386C41.9667 52.9057 41.8796 52.0749 41.8796 51.1461C41.8796 50.152 41.9776 49.3393 42.1734 48.708C42.3693 48.0694 42.7029 47.547 43.1744 47.1406C43.6532 46.7343 44.3096 46.3896 45.1438 46.1066L47.5593 45.2794V43.6032C47.5593 42.7252 47.2728 42.2862 46.6997 42.2862C46.1775 42.2862 45.9163 42.6418 45.9163 43.3529V44.3325H42.1299C42.1226 44.2744 42.119 44.2019 42.119 44.1148C42.119 44.0205 42.119 43.9152 42.119 43.7991C42.119 42.1738 42.4998 41.0236 43.2615 40.3488C44.0304 39.6667 45.2454 39.3257 46.9065 39.3257C47.7769 39.3257 48.5567 39.4817 49.2458 39.7937C49.9349 40.0985 50.4789 40.552 50.8779 41.1543C51.2841 41.7565 51.4872 42.5003 51.4872 43.3855V55.8263H47.6137V53.8889C47.4251 54.571 47.1132 55.0934 46.678 55.4562C46.2428 55.8191 45.7459 56.0005 45.1873 56.0005ZM46.7215 52.9746C47.0407 52.9746 47.2583 52.8404 47.3743 52.5719C47.4904 52.3034 47.5484 52.0132 47.5484 51.7012V47.1515C47.0116 47.3692 46.5946 47.6449 46.2972 47.9787C45.9998 48.3053 45.8511 48.7878 45.8511 49.4263V51.527C45.8511 52.4921 46.1412 52.9746 46.7215 52.9746Z"
    fill="#101828" />
  <path
    d="M52.9887 55.8263V39.4998H56.9492V41.3175C57.1378 40.6862 57.4715 40.1928 57.9502 39.8373C58.429 39.4817 59.031 39.3039 59.7564 39.3039V42.5583C59.4372 42.5583 59.0564 42.5946 58.6139 42.6672C58.1715 42.7325 57.7834 42.8268 57.4497 42.9502C57.1161 43.0663 56.9492 43.1969 56.9492 43.342V55.8263H52.9887Z"
    fill="#101828" />
  <path
    d="M60.7139 55.8263V36.6699H64.5656V45.127L66.4371 39.4998H70.4738L68.0256 46.5964L71.1375 55.8263H66.992L64.5656 48.1311V55.8263H60.7139Z"
    fill="#101828" />
  <path
    d="M76.2296 56.0005C75.069 56.0005 74.1441 55.7828 73.455 55.3474C72.7659 54.912 72.2727 54.2844 71.9753 53.4644C71.6779 52.6445 71.5292 51.6576 71.5292 50.5039V43.9406C71.5292 42.4241 71.9644 41.2776 72.8348 40.5012C73.7053 39.7175 74.9021 39.3257 76.4254 39.3257C79.559 39.3257 81.1258 40.864 81.1258 43.9406V45.127C81.1258 46.5638 81.1113 47.5288 81.0823 48.0223H75.4244V51.1787C75.4244 51.469 75.4425 51.7556 75.4788 52.0386C75.5151 52.3143 75.5949 52.5429 75.7182 52.7243C75.8487 52.9057 76.0555 52.9964 76.3384 52.9964C76.7446 52.9964 76.9985 52.8222 77.1 52.4739C77.2016 52.1184 77.2523 51.6576 77.2523 51.0916V49.5243H81.1258V50.4495C81.1258 51.6685 80.9735 52.6916 80.6688 53.5188C80.3714 54.3388 79.8637 54.9592 79.1456 55.3801C78.4347 55.7937 77.4627 56.0005 76.2296 56.0005ZM75.4026 46.0849H77.2523V43.8862C77.2523 43.2985 77.1798 42.8776 77.0347 42.6236C76.8897 42.3624 76.672 42.2318 76.3819 42.2318C76.07 42.2318 75.827 42.3552 75.6529 42.6019C75.4861 42.8486 75.4026 43.2767 75.4026 43.8862V46.0849Z"
    fill="#101828" />
  <path
    d="M85.8915 56.0005C84.8397 56.0005 84.1288 55.7792 83.7589 55.3365C83.3962 54.8866 83.2149 54.2009 83.2149 53.2794V43.1026H82.1159V40.1311H83.2149V36.6699H87.0013V40.1311H88.1003V43.1026H87.0013V52.3651C87.0013 52.6336 87.0448 52.8222 87.1319 52.9311C87.2189 53.0399 87.3858 53.0944 87.6324 53.0944C87.8065 53.0944 87.9624 53.0798 88.1003 53.0508V55.7066C88.0132 55.7356 87.7412 55.79 87.2842 55.8699C86.8272 55.9569 86.363 56.0005 85.8915 56.0005Z"
    fill="#101828" />
</svg>
