<svg width="24" height="32" viewBox="0 0 24 32" fill="none" xmlns="http://www.w3.org/2000/svg">
  <mask id="mask0_2412_10476" style="mask-type:luminance" maskUnits="userSpaceOnUse" x="0" y="0" width="15" height="32">
    <path
      d="M10.2083 0.000535134C10.2479 -0.00825714 10.116 0.0884579 9.50495 0.501695C6.89364 2.26454 5.11321 3.94387 4.38785 5.31546C3.92186 6.20788 3.85592 6.93324 4.19002 7.64102C4.62963 8.58619 5.64514 9.27198 7.67176 9.99295C8.04983 10.1292 8.39272 10.2391 8.42789 10.2391C8.46306 10.2391 8.59934 10.0941 8.73562 9.91382C9.1049 9.41266 9.07413 9.42585 9.95335 9.3643C11.0963 9.28957 12.4767 9.22802 13.2461 9.22802H13.9362L13.9626 14.0286C13.9758 16.6707 14.0022 21.7966 14.0154 25.4146L14.0418 32H13.8439C13.5098 32 12.6614 31.8769 12.2262 31.7626C11.8085 31.6527 11.237 31.4329 11.0568 31.3142C10.9996 31.279 10.8502 31.0372 10.7183 30.7779C10.5864 30.5141 10.4501 30.2811 10.4193 30.2503C10.3842 30.224 10.0193 30.0745 9.61046 29.9162C9.20162 29.7624 8.81475 29.6129 8.74881 29.5909C8.67408 29.5601 8.59934 29.4766 8.55538 29.3755C8.43669 29.0898 7.52669 26.3642 7.52669 26.285C7.52669 26.2455 7.57944 26.1663 7.64099 26.1048C7.70693 26.0476 7.90475 25.8278 8.0806 25.6168C8.37074 25.2695 8.40152 25.2124 8.42789 24.9882C8.48065 24.5749 8.4235 23.4451 8.32239 22.878C7.91794 20.636 7.08268 18.5434 5.97046 16.996C5.83418 16.807 5.72427 16.6399 5.72427 16.6223C5.72427 16.6047 5.78582 16.4377 5.86055 16.2486C5.93529 16.0596 5.98804 15.897 5.97485 15.8838C5.96166 15.8706 5.78582 15.9101 5.58799 15.9717C4.38345 16.3366 3.65369 16.4201 3.05582 16.2662C2.29089 16.0684 1.23582 15.5936 0.563211 15.1452C0.119201 14.8463 -0.0610399 14.6704 0.0180906 14.6001C0.180748 14.4682 2.11505 13.8176 3.0734 13.5758L3.65369 13.4263L2.9635 12.7229C2.19418 11.9404 1.81611 11.492 1.3721 10.8194C0.101617 8.9071 -0.148962 7.0959 0.637946 5.53087C0.90611 5.00334 1.21384 4.5945 1.76775 4.04058C2.60302 3.20532 3.4207 2.64701 4.82306 1.95242C6.1463 1.30179 7.5135 0.787443 9.30712 0.259907C9.7907 0.119231 10.1951 0.000535134 10.2083 0.000535134Z"
      fill="white" />
  </mask>
  <g mask="url(#mask0_2412_10476)">
    <path d="M52.1052 -1.34668H-11.3306V31.8762H52.1052V-1.34668Z" fill="white" />
    <path d="M52.0525 -1.47168H-11.3301V1.15633H52.0525V-1.47168Z" fill="#D02032" />
    <path d="M52.0525 3.66895H-11.3301V6.29695H52.0525V3.66895Z" fill="#D02032" />
    <path d="M52.0525 8.80957H-11.3301V11.4376H52.0525V8.80957Z" fill="#D02032" />
    <path d="M52.0525 13.9502H-11.3301V16.5782H52.0525V13.9502Z" fill="#D02032" />
    <path d="M52.0525 19.0908H-11.3301V21.7188H52.0525V19.0908Z" fill="#D02032" />
    <path d="M52.0525 24.2314H-11.3301V26.8595H52.0525V24.2314Z" fill="#D02032" />
    <path d="M52.0525 29.3721H-11.3301V32.0001H52.0525V29.3721Z" fill="#D02032" />
    <path d="M13.9827 -1.47168H-11.332V16.5788H13.9827V-1.47168Z" fill="#3B3971" />
    <path
      d="M1.36594 1.07227L1.60246 1.8095H2.36914L1.74885 2.2645L1.9858 3.00173L1.36594 2.54629L0.745648 3.00173L0.9826 2.2645L0.362305 1.8095H1.12899L1.36594 1.07227Z"
      fill="white" />
    <path
      d="M1.36594 4.69043L1.60246 5.42722H2.36914L1.74885 5.88266L1.9858 6.61945L1.36594 6.16445L0.745648 6.61945L0.9826 5.88266L0.362305 5.42722H1.12899L1.36594 4.69043Z"
      fill="white" />
    <path
      d="M1.36594 8.30957L1.60246 9.04636H2.36914L1.74885 9.5018L1.9858 10.2386L1.36594 9.78315L0.745648 10.2386L0.9826 9.5018L0.362305 9.04636H1.12899L1.36594 8.30957Z"
      fill="white" />
    <path
      d="M1.36594 11.9287L1.60246 12.6655H2.36914L1.74885 13.1209L1.9858 13.8577L1.36594 13.4023L0.745648 13.8577L0.9826 13.1209L0.362305 12.6655H1.12899L1.36594 11.9287Z"
      fill="white" />
    <path
      d="M5.59495 1.07227L5.8319 1.8095H6.59858L5.97829 2.2645L6.21524 3.00173L5.59495 2.54629L4.97465 3.00173L5.2116 2.2645L4.59131 1.8095H5.35799L5.59495 1.07227Z"
      fill="white" />
    <path
      d="M5.59495 4.69043L5.8319 5.42722H6.59858L5.97829 5.88266L6.21524 6.61945L5.59495 6.16445L4.97465 6.61945L5.2116 5.88266L4.59131 5.42722H5.35799L5.59495 4.69043Z"
      fill="white" />
    <path
      d="M5.59495 8.30957L5.8319 9.04636H6.59858L5.97829 9.5018L6.21524 10.2386L5.59495 9.78315L4.97465 10.2386L5.2116 9.5018L4.59131 9.04636H5.35799L5.59495 8.30957Z"
      fill="white" />
    <path
      d="M5.59495 11.9287L5.8319 12.6655H6.59858L5.97829 13.1209L6.21524 13.8577L5.59495 13.4023L4.97465 13.8577L5.2116 13.1209L4.59131 12.6655H5.35799L5.59495 11.9287Z"
      fill="white" />
    <path
      d="M9.824 1.07227L10.061 1.8095H10.8276L10.2073 2.2645L10.4443 3.00173L9.824 2.54629L9.20414 3.00173L9.44066 2.2645L8.8208 1.8095H9.58705L9.824 1.07227Z"
      fill="white" />
    <path
      d="M9.824 4.69043L10.061 5.42722H10.8276L10.2073 5.88266L10.4443 6.61945L9.824 6.16445L9.20414 6.61945L9.44066 5.88266L8.8208 5.42722H9.58705L9.824 4.69043Z"
      fill="white" />
    <path
      d="M9.824 8.30957L10.061 9.04636H10.8276L10.2073 9.5018L10.4443 10.2386L9.824 9.78315L9.20414 10.2386L9.44066 9.5018L8.8208 9.04636H9.58705L9.824 8.30957Z"
      fill="white" />
    <path
      d="M9.824 11.9287L10.061 12.6655H10.8276L10.2073 13.1209L10.4443 13.8577L9.824 13.4023L9.20414 13.8577L9.44066 13.1209L8.8208 12.6655H9.58705L9.824 11.9287Z"
      fill="white" />
    <path
      d="M-0.720923 -0.780273L-0.483971 -0.0434815H0.282714L-0.33758 0.411958L-0.100628 1.14875L-0.720923 0.69375L-1.34078 1.14875L-1.10383 0.411958L-1.72412 -0.0434815H-0.957435L-0.720923 -0.780273Z"
      fill="white" />
    <path
      d="M-0.720923 2.83887L-0.483971 3.57566H0.282714L-0.33758 4.0311L-0.100628 4.76789L-0.720923 4.31245L-1.34078 4.76789L-1.10383 4.0311L-1.72412 3.57566H-0.957435L-0.720923 2.83887Z"
      fill="white" />
    <path
      d="M-0.720923 10.0762L-0.483971 10.813H0.282714L-0.33758 11.2684L-0.100628 12.0052L-0.720923 11.5498L-1.34078 12.0052L-1.10383 11.2684L-1.72412 10.813H-0.957435L-0.720923 10.0762Z"
      fill="white" />
    <path
      d="M3.48069 -0.780273L3.71764 -0.0434815H4.48389L3.86403 0.411958L4.10054 1.14875L3.48069 0.69375L2.86039 1.14875L3.09735 0.411958L2.47705 -0.0434815H3.24374L3.48069 -0.780273Z"
      fill="white" />
    <path
      d="M3.48069 2.83887L3.71764 3.57566H4.48389L3.86403 4.0311L4.10054 4.76789L3.48069 4.31245L2.86039 4.76789L3.09735 4.0311L2.47705 3.57566H3.24374L3.48069 2.83887Z"
      fill="white" />
    <path
      d="M3.48069 6.45703L3.71764 7.19382H4.48389L3.86403 7.64926L4.10054 8.38606L3.48069 7.93062L2.86039 8.38606L3.09735 7.64926L2.47705 7.19382H3.24374L3.48069 6.45703Z"
      fill="white" />
    <path
      d="M3.48069 10.0762L3.71764 10.813H4.48389L3.86403 11.2684L4.10054 12.0052L3.48069 11.5498L2.86039 12.0052L3.09735 11.2684L2.47705 10.813H3.24374L3.48069 10.0762Z"
      fill="white" />
    <path
      d="M3.48069 13.6953L3.71764 14.4321H4.48389L3.86403 14.8871L4.10054 15.6243L3.48069 15.1689L2.86039 15.6243L3.09735 14.8871L2.47705 14.4321H3.24374L3.48069 13.6953Z"
      fill="white" />
    <path
      d="M7.68137 -0.780273L7.91832 -0.0434815H8.68501L8.06472 0.411958L8.30167 1.14875L7.68137 0.69375L7.06108 1.14875L7.29803 0.411958L6.67773 -0.0434815H7.44442L7.68137 -0.780273Z"
      fill="white" />
    <path
      d="M7.68137 2.83887L7.91832 3.57566H8.68501L8.06472 4.0311L8.30167 4.76789L7.68137 4.31245L7.06108 4.76789L7.29803 4.0311L6.67773 3.57566H7.44442L7.68137 2.83887Z"
      fill="white" />
    <path
      d="M7.68137 6.45703L7.91832 7.19382H8.68501L8.06472 7.64926L8.30167 8.38606L7.68137 7.93062L7.06108 8.38606L7.29803 7.64926L6.67773 7.19382H7.44442L7.68137 6.45703Z"
      fill="white" />
    <path
      d="M7.68137 10.0762L7.91832 10.813H8.68501L8.06472 11.2684L8.30167 12.0052L7.68137 11.5498L7.06108 12.0052L7.29803 11.2684L6.67773 10.813H7.44442L7.68137 10.0762Z"
      fill="white" />
    <path
      d="M7.68137 13.6953L7.91832 14.4321H8.68501L8.06472 14.8871L8.30167 15.6243L7.68137 15.1689L7.06108 15.6243L7.29803 14.8871L6.67773 14.4321H7.44442L7.68137 13.6953Z"
      fill="white" />
    <path
      d="M11.9675 -0.780273L12.2045 -0.0434815H12.9707L12.3508 0.411958L12.5874 1.14875L11.9675 0.69375L11.3472 1.14875L11.5842 0.411958L10.9639 -0.0434815H11.7306L11.9675 -0.780273Z"
      fill="white" />
    <path
      d="M11.9675 2.83887L12.2045 3.57566H12.9707L12.3508 4.0311L12.5874 4.76789L11.9675 4.31245L11.3472 4.76789L11.5842 4.0311L10.9639 3.57566H11.7306L11.9675 2.83887Z"
      fill="white" />
    <path
      d="M11.9675 6.45703L12.2045 7.19382H12.9707L12.3508 7.64926L12.5874 8.38606L11.9675 7.93062L11.3472 8.38606L11.5842 7.64926L10.9639 7.19382H11.7306L11.9675 6.45703Z"
      fill="white" />
    <path
      d="M11.9675 10.0762L12.2045 10.813H12.9707L12.3508 11.2684L12.5874 12.0052L11.9675 11.5498L11.3472 12.0052L11.5842 11.2684L10.9639 10.813H11.7306L11.9675 10.0762Z"
      fill="white" />
    <path
      d="M11.9675 13.6953L12.2045 14.4321H12.9707L12.3508 14.8871L12.5874 15.6243L11.9675 15.1689L11.3472 15.6243L11.5842 14.8871L10.9639 14.4321H11.7306L11.9675 13.6953Z"
      fill="white" />
  </g>
  <path d="M14.6689 20.1956V9.24805H19.0414V11.3816H16.8676V13.1232H18.9296V15.2319H16.8676V20.1956H14.6689Z" fill="#101828" />
  <path
    d="M14.6689 31.9172V20.9648H18.0033L18.9239 27.642L19.8384 20.9648H23.2038V31.9172H21.2007V24.0265L19.9441 31.9172H17.9784L16.6471 24.0265V31.9172H14.6689Z"
    fill="#101828" />
</svg>
