<svg width="322" height="42" viewBox="0 0 322 42" fill="none" xmlns="http://www.w3.org/2000/svg">
<path d="M8.64601 20.048C8.19801 20.048 7.80601 19.9733 7.47001 19.824C6.46201 19.5253 5.43534 18.8907 4.39001 17.92C3.34467 16.912 2.43001 15.7173 1.64601 14.336C0.89934 12.9173 0.45134 11.5173 0.302006 10.136C0.264673 9.98667 0.246006 9.8 0.246006 9.576C0.246006 9.352 0.246006 9.09067 0.246006 8.792C0.246006 3.976 3.27001 1.568 9.31801 1.568C12.3047 1.568 15.59 2.03467 19.174 2.968C22.758 3.90133 26.9207 5.152 31.662 6.72C32.8567 7.13067 33.8647 7.46667 34.686 7.728C35.5073 7.98933 36.1047 8.176 36.478 8.288C37.7473 8.66133 38.9233 8.848 40.006 8.848C41.2007 8.848 42.078 8.624 42.638 8.176C43.198 7.69067 43.4593 7.168 43.422 6.608V6.384C43.422 5.936 43.5527 5.712 43.814 5.712C44.1127 5.712 44.43 5.936 44.766 6.384C44.9153 6.57066 44.99 6.832 44.99 7.168C44.99 7.952 44.5607 8.68 43.702 9.352C42.8433 10.024 41.5367 10.36 39.782 10.36C38.1767 10.36 36.4033 10.0987 34.462 9.576C32.5207 9.05333 30.0007 8.288 26.902 7.28C23.43 6.16 20.574 5.32 18.334 4.76C16.094 4.16266 14.0033 3.864 12.062 3.864C7.50734 3.864 4.61401 5.86133 3.38201 9.856C3.27001 10.2293 3.21401 10.6587 3.21401 11.144C3.21401 12.0773 3.45667 13.1413 3.94201 14.336C4.46467 15.4933 5.09934 16.5387 5.84601 17.472C6.59267 18.368 7.32067 18.8907 8.03001 19.04H8.42201C9.31801 19.04 9.76601 19.208 9.76601 19.544C9.76601 19.656 9.67267 19.768 9.48601 19.88C9.26201 19.992 8.98201 20.048 8.64601 20.048ZM12.23 40.208C10.4753 39.8347 9.59801 38.8827 9.59801 37.352C9.59801 36.6053 9.78467 35.616 10.158 34.384C10.5313 33.3013 10.8673 32.3493 11.166 31.528C11.502 30.6693 11.8193 29.9413 12.118 29.344C12.4167 28.7467 12.7713 28.0747 13.182 27.328C13.63 26.5813 14.1527 25.7413 14.75 24.808L11.95 26.432C11.4647 26.6933 11.0353 26.9173 10.662 27.104C10.2887 27.2907 9.95267 27.4213 9.65401 27.496C9.61667 27.496 9.57934 27.5147 9.54201 27.552C9.54201 27.552 9.52334 27.552 9.48601 27.552C9.29934 27.552 9.20601 27.4027 9.20601 27.104C9.20601 26.6933 9.33667 26.1893 9.59801 25.592C9.89667 24.9947 10.1767 24.6027 10.438 24.416C10.9233 24.1547 11.3713 23.9307 11.782 23.744C12.1927 23.5573 12.5473 23.4267 12.846 23.352C12.958 23.3147 13.0887 23.2773 13.238 23.24C13.3873 23.1653 13.5553 23.1093 13.742 23.072C14.078 22.96 14.526 22.792 15.086 22.568C15.646 22.3067 16.094 22.1573 16.43 22.12C16.43 22.12 16.5607 21.9333 16.822 21.56C17.0833 21.1493 17.4753 20.552 17.998 19.768C19.566 17.3413 20.5367 15.792 20.91 15.12C21.806 13.5147 22.6087 12.264 23.318 11.368C23.7287 10.808 24.3073 10.528 25.054 10.528C25.5767 10.528 26.062 10.6587 26.51 10.92C26.958 11.1813 27.182 11.4613 27.182 11.76C27.182 11.9467 27.1073 12.096 26.958 12.208C25.9127 13.104 24.662 14.3733 23.206 16.016C21.7873 17.6213 20.3873 19.3387 19.006 21.168C21.9927 20.384 24.7927 19.992 27.406 19.992C28.0033 19.992 28.4327 20.048 28.694 20.16C28.9927 20.3467 29.142 20.5147 29.142 20.664C29.142 20.776 29.03 20.9253 28.806 21.112C28.694 21.1867 28.5447 21.2427 28.358 21.28C28.2087 21.3173 28.0407 21.3547 27.854 21.392C26.4353 21.4667 25.1847 21.5973 24.102 21.784C23.0193 21.9707 21.9553 22.232 20.91 22.568C19.902 22.8667 18.7633 23.2773 17.494 23.8C16.71 24.92 16.0567 25.872 15.534 26.656C15.0113 27.4027 14.582 28.112 14.246 28.784C13.91 29.4187 13.5927 30.128 13.294 30.912C12.9953 31.6587 12.678 32.592 12.342 33.712C11.9687 34.832 11.782 35.728 11.782 36.4C11.782 37.4453 12.2487 38.08 13.182 38.304C13.518 38.3413 13.686 38.528 13.686 38.864C13.686 39.2 13.518 39.5173 13.182 39.816C12.8833 40.152 12.566 40.2827 12.23 40.208ZM24.0793 36.176C23.5939 36.176 23.3513 35.7467 23.3513 34.888C23.3513 34.1787 23.5193 33.488 23.8553 32.816C24.7139 31.1733 25.4979 29.5493 26.2073 27.944C26.6926 26.9733 27.1406 26.04 27.5513 25.144C27.9993 24.248 28.4099 23.4267 28.7833 22.68C29.0073 22.456 29.2313 22.344 29.4553 22.344C29.9406 22.344 30.0899 22.568 29.9033 23.016C29.8286 23.2773 29.7166 23.5947 29.5673 23.968C29.4553 24.304 29.3059 24.7147 29.1193 25.2C28.5219 26.768 28.1673 27.8693 28.0553 28.504C29.1006 27.5707 30.1646 26.712 31.2473 25.928C32.3673 25.1067 33.4126 24.4347 34.3833 23.912C35.3539 23.3893 36.1753 23.128 36.8473 23.128C37.4446 23.128 37.7433 23.3707 37.7433 23.856C37.7433 24.2667 37.5566 24.7147 37.1833 25.2C36.8099 25.648 36.4366 25.872 36.0633 25.872C35.8766 25.872 35.7273 25.816 35.6153 25.704C35.5033 25.6667 35.2793 25.648 34.9433 25.648C33.7486 25.648 32.4979 26.2267 31.1913 27.384C29.8099 28.5413 28.5593 29.9413 27.4393 31.584C26.3193 33.1893 25.4979 34.5893 24.9753 35.784C24.7139 36.0453 24.4153 36.176 24.0793 36.176ZM36.4141 35.952C34.9581 35.952 34.2301 35.2987 34.2301 33.992C34.2301 33.9173 34.2301 33.7867 34.2301 33.6C34.2675 33.4133 34.3048 33.1893 34.3421 32.928C34.7155 31.3973 35.4621 29.9227 36.5821 28.504C37.7395 27.048 39.0648 25.7787 40.5581 24.696C41.1181 24.248 42.0141 24.024 43.2461 24.024C43.9555 24.024 44.5715 24.136 45.0941 24.36C45.6541 24.5467 46.0461 24.8453 46.2701 25.256C46.4941 25.6293 46.6061 26.0587 46.6061 26.544C46.6061 26.6187 46.5875 26.7307 46.5501 26.88C46.5501 27.0293 46.5315 27.1973 46.4941 27.384C46.5688 27.3467 46.6808 27.328 46.8301 27.328C47.0168 27.328 47.2408 27.3093 47.5021 27.272C47.7635 27.2347 48.0061 27.1973 48.2301 27.16C48.4915 27.1227 48.7528 27.104 49.0141 27.104H49.2381C49.6488 27.104 49.6861 27.272 49.3501 27.608C49.0515 27.9067 48.6408 28.0933 48.1181 28.168L46.2141 28.392C45.8408 29.4373 45.1875 30.4827 44.2541 31.528C43.3581 32.5733 42.3501 33.488 41.2301 34.272C40.1475 35.0187 39.1208 35.504 38.1501 35.728C37.5901 35.8773 37.0115 35.952 36.4141 35.952ZM43.5821 27.608C43.8061 27.608 44.0675 27.608 44.3661 27.608C44.7021 27.5707 45.0755 27.5333 45.4861 27.496C45.5235 27.4213 45.5421 27.2533 45.5421 26.992C45.5421 26.32 45.2621 25.8533 44.7021 25.592C44.4035 25.4053 44.0301 25.312 43.5821 25.312C43.0221 25.312 42.4435 25.4987 41.8461 25.872C41.2861 26.208 40.6888 26.656 40.0541 27.216C40.8381 27.4773 42.0141 27.608 43.5821 27.608ZM38.0941 33.992C38.4675 33.992 38.9901 33.824 39.6621 33.488C40.3715 33.1147 41.0995 32.6293 41.8461 32.032C42.5928 31.4347 43.2648 30.8 43.8621 30.128C44.0488 29.9413 44.2355 29.7173 44.4221 29.456C44.6088 29.1573 44.8141 28.8587 45.0381 28.56L43.6941 28.728C41.6035 29.0267 39.7368 29.1947 38.0941 29.232C37.2728 30.576 36.7688 31.696 36.5821 32.592C36.5448 33.0773 36.6755 33.432 36.9741 33.656C37.2728 33.88 37.6461 33.992 38.0941 33.992ZM47.5205 35.896C46.8485 35.896 46.5125 35.6347 46.5125 35.112C46.5125 34.776 46.6245 34.3467 46.8485 33.824C47.1098 33.3013 47.3712 32.7973 47.6325 32.312C48.3418 31.0427 48.9952 29.8107 49.5925 28.616C50.1898 27.4213 50.7685 26.152 51.3285 24.808C51.5898 24.2107 51.9818 23.912 52.5045 23.912C53.0645 23.912 53.2325 24.248 53.0085 24.92C52.7845 25.48 52.5605 25.984 52.3365 26.432C51.2912 28.56 50.7685 29.9973 50.7685 30.744C50.7685 31.08 50.8805 31.2853 51.1045 31.36C51.6272 30.9493 52.0192 30.6507 52.2805 30.464C52.5418 30.24 52.6912 30.1093 52.7285 30.072C53.2512 29.6613 53.8298 29.1947 54.4645 28.672C55.1365 28.112 55.8645 27.4773 56.6485 26.768C57.8805 25.648 58.9072 25.088 59.7285 25.088C60.7365 25.088 61.1658 26.0027 61.0165 27.832C60.9792 28.5413 60.9792 29.232 61.0165 29.904C61.0538 30.0533 61.0725 30.2773 61.0725 30.576C61.0725 30.8373 61.0725 31.1547 61.0725 31.528C61.0725 31.9013 61.2965 32.088 61.7445 32.088C62.2672 32.088 62.7525 31.9387 63.2005 31.64L64.4325 30.8L65.6645 30.016C65.7392 29.9787 65.8698 29.96 66.0565 29.96C66.2805 29.96 66.2805 30.128 66.0565 30.464C63.7045 33.376 61.7632 34.832 60.2325 34.832C59.9338 34.832 59.6352 34.776 59.3365 34.664C59.0752 34.552 58.8885 34.2347 58.7765 33.712C58.6645 33.152 58.5898 32.5547 58.5525 31.92C58.5525 31.2853 58.5525 30.8 58.5525 30.464L58.6085 28.616C58.6085 27.832 58.4032 27.44 57.9925 27.44C57.0218 27.44 54.6325 29.4373 50.8245 33.432C50.5258 33.8053 50.0592 34.3093 49.4245 34.944C48.7898 35.5787 48.1552 35.896 47.5205 35.896ZM66.1624 40.208C65.9757 40.208 65.8824 40.04 65.8824 39.704C65.8824 39.6293 65.8824 39.5173 65.8824 39.368C65.9197 39.256 65.957 39.1253 65.9944 38.976L68.4024 32.928L71.2584 25.872C70.8104 25.8347 70.1571 25.8533 69.2984 25.928C68.4397 25.9653 67.7117 26.04 67.1144 26.152C66.8904 26.1893 66.7037 26.2267 66.5544 26.264C66.4424 26.264 66.349 26.264 66.2744 26.264C65.9757 26.264 65.7704 26.1333 65.6584 25.872C65.6957 25.648 65.901 25.4427 66.2744 25.256C66.461 25.1813 66.685 25.1253 66.9464 25.088C67.2077 25.0133 67.5251 24.9387 67.8984 24.864C68.309 24.7893 68.6637 24.7333 68.9624 24.696C69.2984 24.6587 69.5411 24.6213 69.6904 24.584C69.8771 24.5467 70.0637 24.5093 70.2504 24.472C70.4371 24.4347 70.6611 24.3973 70.9224 24.36C71.1464 24.3227 71.3891 24.2853 71.6504 24.248C71.9117 24.2107 72.1917 24.1547 72.4904 24.08C72.7891 23.6693 73.2371 22.9413 73.8344 21.896C74.4317 20.8507 75.1971 19.4693 76.1304 17.752C76.8771 16.3707 77.4744 15.288 77.9224 14.504C78.4077 13.6827 78.7437 13.1413 78.9304 12.88C79.2664 12.432 79.6584 12.208 80.1064 12.208C80.3304 12.208 80.4424 12.3013 80.4424 12.488C80.4424 12.5253 80.3491 12.768 80.1624 13.216C79.9384 13.5893 79.5651 14.28 79.0424 15.288C78.5197 16.296 77.9597 17.3973 77.3624 18.592C76.7651 19.7867 76.2237 20.9067 75.7384 21.952C75.2531 22.9973 74.9171 23.7627 74.7304 24.248C74.9171 24.2107 75.1224 24.192 75.3464 24.192C75.6077 24.192 75.9251 24.192 76.2984 24.192C76.7091 24.192 77.0824 24.2107 77.4184 24.248C77.7917 24.248 78.1091 24.2667 78.3704 24.304C78.8931 24.416 79.1544 24.5653 79.1544 24.752C79.1544 24.8267 78.9864 24.9573 78.6504 25.144C78.4637 25.2187 78.1091 25.2933 77.5864 25.368C77.0637 25.4427 76.3731 25.5173 75.5144 25.592C75.2904 25.592 75.0477 25.6107 74.7864 25.648C74.5251 25.648 74.2451 25.6667 73.9464 25.704C72.8264 27.5333 71.2957 30.576 69.3544 34.832C68.645 36.2507 68.1037 37.352 67.7304 38.136C67.3571 38.92 67.1331 39.3867 67.0584 39.536C66.7224 39.984 66.4237 40.208 66.1624 40.208ZM80.2166 22.736C79.7313 22.736 79.4886 22.624 79.4886 22.4C79.4886 22.2133 79.6193 21.952 79.8806 21.616C80.1793 21.2427 80.5153 20.9253 80.8886 20.664C81.71 20.1413 82.3446 19.6933 82.7926 19.32C83.278 18.9467 83.8566 18.312 84.5286 17.416C84.566 17.4907 84.5846 17.64 84.5846 17.864C84.5846 18.3493 84.3793 18.9467 83.9686 19.656C83.5953 20.328 83.166 20.944 82.6806 21.504C82.1953 22.064 81.766 22.4187 81.3926 22.568C81.0566 22.68 80.6646 22.736 80.2166 22.736ZM75.2326 36.456C74.934 36.456 74.654 36.344 74.3926 36.12C74.1313 35.896 74.0006 35.5973 74.0006 35.224C74.0006 34.44 74.542 33.0027 75.6246 30.912L76.2406 29.68C76.3153 29.6053 76.4086 29.4187 76.5206 29.12C76.67 28.8213 76.8753 28.4293 77.1366 27.944C77.398 27.4213 77.6033 26.9547 77.7526 26.544C77.902 26.1333 78.014 25.7413 78.0886 25.368C78.0886 25.3307 78.1633 25.256 78.3126 25.144C78.462 25.032 78.6113 24.9387 78.7606 24.864L79.0966 24.808C79.3953 24.808 79.638 24.864 79.8246 24.976C80.0486 25.088 80.1233 25.2373 80.0486 25.424C79.7873 25.984 79.5633 26.4693 79.3766 26.88C79.19 27.2907 79.0406 27.6453 78.9286 27.944H78.8726C78.462 28.8773 78.1073 29.7733 77.8086 30.632C77.5473 31.4533 77.4353 32.2373 77.4726 32.984L77.5286 34.496C77.4913 34.8693 77.3606 35.1867 77.1366 35.448C76.9873 35.56 76.782 35.6907 76.5206 35.84C76.2593 36.0267 75.9233 36.2133 75.5126 36.4C75.4753 36.4373 75.382 36.456 75.2326 36.456ZM83.2056 35.616C82.4216 35.616 81.731 35.4107 81.1336 35C80.163 34.2533 79.6776 33.1333 79.6776 31.64C79.6776 30.1467 80.2003 28.56 81.2456 26.88C82.291 25.2 83.8776 23.6507 86.0056 22.232C86.379 21.9707 86.883 21.84 87.5176 21.84C88.339 21.84 89.067 22.064 89.7016 22.512C90.3736 22.96 90.635 23.5387 90.4856 24.248C90.2243 25.4053 89.6456 26.432 88.7496 27.328C87.891 28.224 86.8643 29.0267 85.6696 29.736C84.5123 30.408 83.3176 31.0613 82.0856 31.696C82.0483 31.808 82.011 31.92 81.9736 32.032C81.9736 32.144 81.9736 32.256 81.9736 32.368C81.9736 32.8907 82.1416 33.3573 82.4776 33.768C82.851 34.1413 83.355 34.328 83.9896 34.328C84.475 34.328 84.8856 34.2533 85.2216 34.104C85.819 33.88 86.3043 33.6747 86.6776 33.488C87.0883 33.3013 87.555 33.0213 88.0776 32.648C88.6003 32.2747 89.3096 31.7147 90.2056 30.968C90.6163 30.6693 90.859 30.52 90.9336 30.52C91.1576 30.52 91.2323 30.688 91.1576 31.024C90.7843 31.6213 90.131 32.2747 89.1976 32.984C88.3016 33.6933 87.2936 34.3093 86.1736 34.832C85.091 35.3547 84.1016 35.616 83.2056 35.616ZM82.4216 30.184C82.7203 30.184 83.3363 29.8853 84.2696 29.288C85.203 28.6907 86.0803 28.0373 86.9016 27.328C88.3203 26.0213 89.0296 25.0133 89.0296 24.304C89.0296 24.1173 88.9736 23.9493 88.8616 23.8C88.7496 23.6133 88.5816 23.52 88.3576 23.52C87.6483 23.52 86.4536 24.36 84.7736 26.04C83.6163 27.16 82.8323 28.5413 82.4216 30.184ZM90.5552 36.176C90.0699 36.176 89.8272 35.7467 89.8272 34.888C89.8272 34.1787 89.9952 33.488 90.3312 32.816C91.1899 31.1733 91.9739 29.5493 92.6832 27.944C93.1685 26.9733 93.6165 26.04 94.0272 25.144C94.4752 24.248 94.8859 23.4267 95.2592 22.68C95.4832 22.456 95.7072 22.344 95.9312 22.344C96.4165 22.344 96.5659 22.568 96.3792 23.016C96.3045 23.2773 96.1925 23.5947 96.0432 23.968C95.9312 24.304 95.7819 24.7147 95.5952 25.2C94.9979 26.768 94.6432 27.8693 94.5312 28.504C95.5765 27.5707 96.6405 26.712 97.7232 25.928C98.8432 25.1067 99.8885 24.4347 100.859 23.912C101.83 23.3893 102.651 23.128 103.323 23.128C103.921 23.128 104.219 23.3707 104.219 23.856C104.219 24.2667 104.033 24.7147 103.659 25.2C103.286 25.648 102.913 25.872 102.539 25.872C102.353 25.872 102.203 25.816 102.091 25.704C101.979 25.6667 101.755 25.648 101.419 25.648C100.225 25.648 98.9739 26.2267 97.6672 27.384C96.2859 28.5413 95.0352 29.9413 93.9152 31.584C92.7952 33.1893 91.9739 34.5893 91.4512 35.784C91.1899 36.0453 90.8912 36.176 90.5552 36.176ZM99.5861 37.352C98.9887 37.352 98.4661 37.296 98.0181 37.184C97.6074 37.072 97.4021 36.9227 97.4021 36.736C97.4021 36.4373 97.7007 36.2693 98.2981 36.232C98.8581 36.1947 99.2314 36.1387 99.4181 36.064C99.7541 35.9893 100.146 35.9333 100.594 35.896C101.005 35.8213 101.341 35.7653 101.602 35.728C103.394 35.2053 104.29 34.4027 104.29 33.32C104.29 32.5733 103.898 31.6213 103.114 30.464C102.629 29.7547 102.386 28.9707 102.386 28.112C102.386 27.0667 102.703 26.04 103.338 25.032C104.01 24.024 104.831 23.1467 105.802 22.4C106.81 21.616 107.818 21.0933 108.826 20.832C109.274 20.72 109.741 20.664 110.226 20.664C111.01 20.664 111.57 20.8507 111.906 21.224C112.13 21.448 112.242 21.9333 112.242 22.68C112.242 23.24 112.149 23.8187 111.962 24.416C111.775 24.976 111.514 25.4427 111.178 25.816C110.991 26.0027 110.842 26.096 110.73 26.096C110.543 26.096 110.45 25.8347 110.45 25.312L110.506 24.192C110.543 23.8933 110.562 23.632 110.562 23.408C110.599 23.184 110.618 22.9973 110.618 22.848C110.618 22.2133 110.487 21.84 110.226 21.728C109.927 21.6533 109.722 21.616 109.61 21.616C108.826 21.616 107.986 21.9707 107.09 22.68C106.194 23.3893 105.466 24.2107 104.906 25.144C104.682 25.48 104.57 25.8907 104.57 26.376C104.57 26.9733 104.719 27.6827 105.018 28.504C105.354 29.288 105.597 29.8667 105.746 30.24C106.119 31.0613 106.399 31.7707 106.586 32.368C106.81 32.9653 106.922 33.488 106.922 33.936C106.922 34.16 106.903 34.328 106.866 34.44C107.053 34.3653 107.501 34.2533 108.21 34.104C108.845 33.9547 109.386 33.88 109.834 33.88C110.095 33.88 110.226 33.936 110.226 34.048C110.226 34.0853 110.114 34.216 109.89 34.44C109.778 34.552 109.423 34.7387 108.826 35C108.266 35.224 107.594 35.4667 106.81 35.728C106.063 35.9893 105.317 36.232 104.57 36.456C103.823 36.68 103.189 36.848 102.666 36.96C101.77 37.2213 100.743 37.352 99.5861 37.352ZM174.917 38.416C173.797 38.416 172.882 37.8747 172.173 36.792C171.501 35.7467 171.239 34.496 171.389 33.04C171.575 31.248 172.005 29.1387 172.677 26.712C173.386 24.248 174.245 21.672 175.253 18.984C176.298 16.2587 177.399 13.6267 178.557 11.088C178.071 11.76 177.474 12.5813 176.765 13.552C176.093 14.4853 175.327 15.568 174.469 16.8L173.461 18.256C172.602 19.488 171.818 20.5893 171.109 21.56C170.399 22.5307 169.765 23.3893 169.205 24.136C169.13 24.2107 168.962 24.416 168.701 24.752C168.477 25.0507 168.159 25.4613 167.749 25.984C167.338 26.5067 166.89 27.048 166.405 27.608C165.957 28.1307 165.49 28.6533 165.005 29.176C162.765 31.6773 161.253 32.928 160.469 32.928C159.349 32.9653 158.509 32.4613 157.949 31.416C157.389 30.3707 157.109 28.9333 157.109 27.104C157.109 26.3573 157.165 25.536 157.277 24.64C157.575 21.8027 158.359 18.1253 159.629 13.608L160.917 9.016C161.103 8.38133 161.234 7.80266 161.309 7.28C161.383 6.75733 161.439 6.272 161.477 5.824C161.477 5.33866 161.626 5.00266 161.925 4.816C162.261 4.592 162.671 4.48 163.157 4.48C163.679 4.48 164.146 4.592 164.557 4.816C165.005 5.04 165.21 5.28266 165.173 5.544C165.061 6.25333 164.911 6.98133 164.725 7.728C164.538 8.47467 164.314 9.25867 164.053 10.08C163.978 10.3787 163.829 10.7707 163.605 11.256C163.418 11.7413 163.175 12.3013 162.877 12.936L162.205 14.448C161.383 16.2773 160.73 17.9947 160.245 19.6C159.759 21.2053 159.423 22.848 159.237 24.528C159.199 24.6773 159.181 24.8827 159.181 25.144C159.181 25.368 159.181 25.6293 159.181 25.928C159.181 27.048 159.367 27.8507 159.741 28.336C160.151 28.784 160.786 29.0267 161.645 29.064C162.018 29.064 162.503 28.8587 163.101 28.448C163.735 28.0373 164.389 27.5333 165.061 26.936C165.733 26.3387 166.367 25.7227 166.965 25.088C167.599 24.416 168.103 23.8373 168.477 23.352C170.717 20.5147 172.77 17.7707 174.637 15.12C176.541 12.432 178.146 9.93067 179.453 7.616C180.797 5.30133 181.73 3.28533 182.253 1.568C182.439 1.008 182.887 0.727997 183.597 0.727997C184.157 0.727997 184.661 0.914664 185.109 1.288C185.557 1.66133 185.669 2.072 185.445 2.52L184.493 4.368C183.485 6.34667 182.514 8.232 181.581 10.024C180.685 11.7787 179.882 13.4773 179.173 15.12L179.117 15.064C177.586 18.5733 176.373 21.8027 175.477 24.752C174.618 27.664 174.058 30.3147 173.797 32.704C173.722 33.7867 173.853 34.7387 174.189 35.56C174.562 36.3813 175.103 36.792 175.813 36.792C176.746 36.792 177.735 36.12 178.781 34.776C179.154 34.2907 179.49 34.104 179.789 34.216C179.901 34.328 179.957 34.4213 179.957 34.496C179.957 34.6827 179.882 34.8507 179.733 35C178.949 36.1573 178.127 37.016 177.269 37.576C176.447 38.136 175.663 38.416 174.917 38.416ZM128.829 41.552C126.365 41.552 124.405 40.7493 122.949 39.144C121.493 37.576 120.765 35.3733 120.765 32.536C120.765 28.616 122.183 24.0987 125.021 18.984C126.962 15.4747 129.109 12.88 131.461 11.2C133.85 9.48267 136.127 8.624 138.293 8.624C140.197 8.624 141.765 9.20267 142.997 10.36C144.266 11.5173 144.901 12.992 144.901 14.784C144.901 16.128 144.509 17.528 143.725 18.984C142.978 20.44 141.821 21.896 140.253 23.352C140.066 23.5387 139.879 23.632 139.693 23.632C139.506 23.632 139.413 23.52 139.413 23.296C139.413 23.072 139.562 22.8107 139.861 22.512C140.981 21.3547 141.821 20.1973 142.381 19.04C142.941 17.8453 143.221 16.7253 143.221 15.68C143.221 14.1867 142.735 12.9733 141.765 12.04C140.794 11.0693 139.562 10.584 138.069 10.584C136.277 10.584 134.391 11.3307 132.413 12.824C130.471 14.28 128.642 16.5573 126.925 19.656C124.162 24.7707 122.781 29.12 122.781 32.704C122.781 34.9813 123.322 36.7547 124.405 38.024C125.525 39.2933 127.055 39.928 128.997 39.928C130.751 39.928 132.711 39.4053 134.877 38.36C137.042 37.3147 139.338 35.728 141.765 33.6C145.125 30.6133 148.205 27.0853 151.005 23.016C152.423 20.9627 153.506 19.3947 154.253 18.312C154.999 17.2293 155.41 16.632 155.485 16.52C156.082 15.6987 156.717 14.8213 157.389 13.888C158.061 12.9173 158.77 11.872 159.517 10.752C159.629 10.5653 159.741 10.584 159.853 10.808C160.039 11.1067 160.058 11.3493 159.909 11.536C159.05 12.8053 158.079 14.336 156.997 16.128C155.951 17.8827 154.757 19.8613 153.413 22.064L152.405 23.688H152.461C149.474 28.3173 146.133 32.1813 142.437 35.28C139.973 37.3707 137.565 38.9387 135.213 39.984C132.898 41.0293 130.77 41.552 128.829 41.552ZM188.984 36.512C188.909 36.512 188.834 36.4933 188.76 36.456C188.685 36.456 188.61 36.4373 188.536 36.4C188.013 36.1387 187.677 35.7653 187.528 35.28C187.378 34.7947 187.341 34.1787 187.416 33.432C187.49 33.1333 187.565 32.6107 187.64 31.864C187.752 31.1173 187.882 30.52 188.032 30.072L185.176 32.816L183.608 34.328C182.525 35.4107 181.629 35.952 180.92 35.952C180.621 35.952 180.378 35.84 180.192 35.616C179.856 35.2053 179.688 34.7013 179.688 34.104C179.688 33.32 179.893 32.48 180.304 31.584C180.714 30.688 181.2 29.8293 181.76 29.008C182.32 28.1493 182.824 27.44 183.272 26.88C184.392 25.4987 185.474 24.416 186.52 23.632C187.602 22.848 188.722 22.456 189.88 22.456C190.514 22.456 191.13 22.568 191.728 22.792C192.362 23.016 192.941 23.3893 193.464 23.912L193.52 23.968C193.52 24.08 193.426 24.192 193.24 24.304C193.165 24.3787 193.09 24.4347 193.016 24.472C192.978 24.5093 192.941 24.5467 192.904 24.584C192.456 25.032 191.952 25.7787 191.392 26.824C190.832 27.8693 190.346 28.9707 189.936 30.128C189.525 31.248 189.32 32.2187 189.32 33.04C189.32 33.7867 189.506 34.2907 189.88 34.552C190.066 34.664 190.272 34.72 190.496 34.72C190.981 34.72 191.653 34.4213 192.512 33.824C192.549 33.7867 192.624 33.7307 192.736 33.656C192.885 33.544 193.09 33.3947 193.352 33.208C193.65 32.984 193.893 32.872 194.08 32.872C194.266 32.872 194.36 32.9467 194.36 33.096C194.36 33.32 194.21 33.5813 193.912 33.88C193.688 34.0667 193.426 34.272 193.128 34.496C192.866 34.72 192.549 34.944 192.176 35.168C191.616 35.5787 191.037 35.896 190.44 36.12C189.842 36.3813 189.357 36.512 188.984 36.512ZM182.656 32.928C183.44 32.928 184.896 31.7707 187.024 29.456C187.584 28.8213 188.088 28.224 188.536 27.664C188.984 27.0667 189.394 26.488 189.768 25.928C190.44 24.8453 190.664 24.0987 190.44 23.688C190.328 23.464 190.104 23.352 189.768 23.352C189.357 23.352 188.797 23.576 188.088 24.024C187.378 24.4347 186.65 24.976 185.904 25.648C185.194 26.32 184.541 26.992 183.944 27.664C183.533 28.1867 183.122 28.9147 182.712 29.848C182.301 30.7813 182.096 31.5467 182.096 32.144C182.096 32.6667 182.282 32.928 182.656 32.928ZM195.927 36.176C195.442 36.176 195.199 35.7467 195.199 34.888C195.199 34.1787 195.367 33.488 195.703 32.816C196.562 31.1733 197.346 29.5493 198.055 27.944C198.54 26.9733 198.988 26.04 199.399 25.144C199.847 24.248 200.258 23.4267 200.631 22.68C200.855 22.456 201.079 22.344 201.303 22.344C201.788 22.344 201.938 22.568 201.751 23.016C201.676 23.2773 201.564 23.5947 201.415 23.968C201.303 24.304 201.154 24.7147 200.967 25.2C200.37 26.768 200.015 27.8693 199.903 28.504C200.948 27.5707 202.012 26.712 203.095 25.928C204.215 25.1067 205.26 24.4347 206.231 23.912C207.202 23.3893 208.023 23.128 208.695 23.128C209.292 23.128 209.591 23.3707 209.591 23.856C209.591 24.2667 209.404 24.7147 209.031 25.2C208.658 25.648 208.284 25.872 207.911 25.872C207.724 25.872 207.575 25.816 207.463 25.704C207.351 25.6667 207.127 25.648 206.791 25.648C205.596 25.648 204.346 26.2267 203.039 27.384C201.658 28.5413 200.407 29.9413 199.287 31.584C198.167 33.1893 197.346 34.5893 196.823 35.784C196.562 36.0453 196.263 36.176 195.927 36.176ZM204.958 38.976C204.921 38.976 204.883 38.976 204.846 38.976C204.771 39.0133 204.697 39.032 204.622 39.032C204.211 39.032 204.006 38.8267 204.006 38.416C204.006 38.1547 204.118 37.7813 204.342 37.296C204.529 36.848 204.753 36.3813 205.014 35.896C205.275 35.448 205.443 35.1493 205.518 35C205.929 34.2907 206.246 33.712 206.47 33.264C206.731 32.816 206.899 32.48 206.974 32.256L208.318 29.064L207.702 28.672C207.515 28.56 207.366 28.448 207.254 28.336C207.179 28.224 207.123 28.1493 207.086 28.112L206.974 27.888C206.974 27.664 207.254 27.4773 207.814 27.328C208.038 27.1787 208.598 26.992 209.494 26.768L211.454 22.68L212.462 20.16C213.955 16.4267 215.374 13.3653 216.718 10.976C218.099 8.54933 219.705 6.90667 221.534 6.048H221.59C221.739 6.048 221.945 6.12267 222.206 6.272C222.467 6.42133 222.635 6.608 222.71 6.832C222.747 6.98133 222.766 7.14933 222.766 7.336C222.803 7.48533 222.822 7.65333 222.822 7.84C222.822 8.624 222.635 9.59467 222.262 10.752C221.926 11.872 221.347 13.0667 220.526 14.336C219.779 15.456 218.827 16.688 217.67 18.032C216.55 19.3387 215.225 20.7573 213.694 22.288C212.985 23.5573 212.313 24.8453 211.678 26.152C212.686 25.8533 213.862 25.4053 215.206 24.808C215.803 24.6213 216.438 24.3973 217.11 24.136C217.782 23.8747 218.491 23.5573 219.238 23.184C219.425 23.1093 219.63 23.016 219.854 22.904C220.078 22.792 220.302 22.68 220.526 22.568L222.43 21.728L223.046 21.672C223.233 21.672 223.27 21.7467 223.158 21.896C223.046 22.12 222.617 22.4747 221.87 22.96C221.123 23.4453 220.358 23.8933 219.574 24.304L216.438 25.704C215.729 26.0027 215.169 26.2453 214.758 26.432C214.347 26.6187 214.067 26.7493 213.918 26.824C213.657 27.16 213.414 27.496 213.19 27.832C213.003 28.1307 212.835 28.4293 212.686 28.728C212.873 29.5493 213.881 30.6693 215.71 32.088C216.457 32.6853 216.979 33.1147 217.278 33.376C217.577 33.6373 217.689 33.7307 217.614 33.656C218.174 34.0667 218.491 34.4027 218.566 34.664L218.622 34.888V34.944C218.622 35.1307 218.454 35.1307 218.118 34.944C217.782 34.8693 217.334 34.6827 216.774 34.384L214.702 33.32C213.843 32.872 213.153 32.4987 212.63 32.2C212.145 31.9013 211.697 31.6027 211.286 31.304C210.875 31.0053 210.353 30.632 209.718 30.184C208.897 32.0133 208.169 33.6373 207.534 35.056C207.497 35.168 207.459 35.2427 207.422 35.28C207.422 35.3547 207.422 35.4107 207.422 35.448C207.422 35.56 207.534 35.6533 207.758 35.728C207.982 35.7653 208.113 35.84 208.15 35.952C208.187 36.1013 208.206 36.2133 208.206 36.288C208.243 36.4 208.262 36.4747 208.262 36.512C208.262 37.1467 207.907 37.688 207.198 38.136C206.526 38.584 205.779 38.864 204.958 38.976ZM213.974 19.992C214.086 20.0667 214.366 19.8987 214.814 19.488C215.262 19.04 215.766 18.48 216.326 17.808C216.923 17.0987 217.502 16.3707 218.062 15.624C218.659 14.84 219.126 14.1493 219.462 13.552C220.022 12.5813 220.489 11.648 220.862 10.752C221.235 9.81866 221.422 9.10933 221.422 8.624C221.422 8.176 221.254 7.952 220.918 7.952C220.507 7.952 219.985 8.32533 219.35 9.072C218.715 9.81867 218.081 10.7333 217.446 11.816C216.849 12.8987 216.326 13.9253 215.878 14.896C215.617 15.4933 215.337 16.1653 215.038 16.912C214.777 17.6587 214.553 18.3307 214.366 18.928C214.179 19.488 214.049 19.8427 213.974 19.992ZM223.374 35.616C222.59 35.616 221.899 35.4107 221.302 35C220.331 34.2533 219.846 33.1333 219.846 31.64C219.846 30.1467 220.369 28.56 221.414 26.88C222.459 25.2 224.046 23.6507 226.174 22.232C226.547 21.9707 227.051 21.84 227.686 21.84C228.507 21.84 229.235 22.064 229.87 22.512C230.542 22.96 230.803 23.5387 230.654 24.248C230.393 25.4053 229.814 26.432 228.918 27.328C228.059 28.224 227.033 29.0267 225.838 29.736C224.681 30.408 223.486 31.0613 222.254 31.696C222.217 31.808 222.179 31.92 222.142 32.032C222.142 32.144 222.142 32.256 222.142 32.368C222.142 32.8907 222.31 33.3573 222.646 33.768C223.019 34.1413 223.523 34.328 224.158 34.328C224.643 34.328 225.054 34.2533 225.39 34.104C225.987 33.88 226.473 33.6747 226.846 33.488C227.257 33.3013 227.723 33.0213 228.246 32.648C228.769 32.2747 229.478 31.7147 230.374 30.968C230.785 30.6693 231.027 30.52 231.102 30.52C231.326 30.52 231.401 30.688 231.326 31.024C230.953 31.6213 230.299 32.2747 229.366 32.984C228.47 33.6933 227.462 34.3093 226.342 34.832C225.259 35.3547 224.27 35.616 223.374 35.616ZM222.59 30.184C222.889 30.184 223.505 29.8853 224.438 29.288C225.371 28.6907 226.249 28.0373 227.07 27.328C228.489 26.0213 229.198 25.0133 229.198 24.304C229.198 24.1173 229.142 23.9493 229.03 23.8C228.918 23.6133 228.75 23.52 228.526 23.52C227.817 23.52 226.622 24.36 224.942 26.04C223.785 27.16 223.001 28.5413 222.59 30.184ZM231.284 40.208C231.097 40.208 231.004 40.04 231.004 39.704C231.004 39.6293 231.004 39.5173 231.004 39.368C231.041 39.256 231.078 39.1253 231.116 38.976L233.524 32.928L236.38 25.872C235.932 25.8347 235.278 25.8533 234.42 25.928C233.561 25.9653 232.833 26.04 232.236 26.152C232.012 26.1893 231.825 26.2267 231.676 26.264C231.564 26.264 231.47 26.264 231.396 26.264C231.097 26.264 230.892 26.1333 230.78 25.872C230.817 25.648 231.022 25.4427 231.396 25.256C231.582 25.1813 231.806 25.1253 232.068 25.088C232.329 25.0133 232.646 24.9387 233.02 24.864C233.43 24.7893 233.785 24.7333 234.084 24.696C234.42 24.6587 234.662 24.6213 234.812 24.584C234.998 24.5467 235.185 24.5093 235.372 24.472C235.558 24.4347 235.782 24.3973 236.044 24.36C236.268 24.3227 236.51 24.2853 236.772 24.248C237.033 24.2107 237.313 24.1547 237.612 24.08C237.91 23.6693 238.358 22.9413 238.956 21.896C239.553 20.8507 240.318 19.4693 241.252 17.752C241.998 16.3707 242.596 15.288 243.044 14.504C243.529 13.6827 243.865 13.1413 244.052 12.88C244.388 12.432 244.78 12.208 245.228 12.208C245.452 12.208 245.564 12.3013 245.564 12.488C245.564 12.5253 245.47 12.768 245.284 13.216C245.06 13.5893 244.686 14.28 244.164 15.288C243.641 16.296 243.081 17.3973 242.484 18.592C241.886 19.7867 241.345 20.9067 240.86 21.952C240.374 22.9973 240.038 23.7627 239.852 24.248C240.038 24.2107 240.244 24.192 240.468 24.192C240.729 24.192 241.046 24.192 241.42 24.192C241.83 24.192 242.204 24.2107 242.54 24.248C242.913 24.248 243.23 24.2667 243.492 24.304C244.014 24.416 244.276 24.5653 244.276 24.752C244.276 24.8267 244.108 24.9573 243.772 25.144C243.585 25.2187 243.23 25.2933 242.708 25.368C242.185 25.4427 241.494 25.5173 240.636 25.592C240.412 25.592 240.169 25.6107 239.908 25.648C239.646 25.648 239.366 25.6667 239.068 25.704C237.948 27.5333 236.417 30.576 234.476 34.832C233.766 36.2507 233.225 37.352 232.852 38.136C232.478 38.92 232.254 39.3867 232.18 39.536C231.844 39.984 231.545 40.208 231.284 40.208ZM257.657 19.208C257.284 19.208 256.873 19.1147 256.425 18.928C255.38 18.6293 254.316 17.9947 253.233 17.024C252.076 16.016 251.086 14.8213 250.265 13.44C249.444 12.0213 248.958 10.64 248.809 9.296C248.772 9.14667 248.753 8.96 248.753 8.736C248.753 8.512 248.753 8.25067 248.753 7.952C248.753 3.09867 251.74 0.671998 257.713 0.671998C260.737 0.671998 264.06 1.15733 267.681 2.128C271.34 3.09866 275.54 4.38666 280.281 5.992C281.14 6.29066 281.924 6.57066 282.633 6.832C283.38 7.056 284.052 7.26133 284.649 7.448C286.105 7.85867 287.374 8.064 288.457 8.064C289.689 8.064 290.566 7.82133 291.089 7.336C291.649 6.85067 291.929 6.30933 291.929 5.712V5.488C291.929 5.04 292.06 4.816 292.321 4.816C292.62 4.816 292.937 5.04 293.273 5.488C293.348 5.56267 293.385 5.712 293.385 5.936C293.385 6.79466 292.881 7.59733 291.873 8.344C290.865 9.09067 289.614 9.464 288.121 9.464C287.897 9.464 287.692 9.464 287.505 9.464C287.356 9.464 287.206 9.44533 287.057 9.408C285.601 9.22133 283.996 8.88533 282.241 8.4C280.524 7.87733 278.396 7.18667 275.857 6.328C272.31 5.13333 269.361 4.21866 267.009 3.584C264.657 2.94933 262.473 2.632 260.457 2.632C258.254 2.632 256.388 3.11733 254.857 4.088C253.364 5.05866 252.262 6.64533 251.553 8.848C251.441 9.184 251.385 9.55733 251.385 9.968C251.385 10.6773 251.553 11.48 251.889 12.376C252.225 13.2347 252.673 14.0747 253.233 14.896C253.793 15.7173 254.39 16.4267 255.025 17.024C255.66 17.584 256.257 17.92 256.817 18.032C257.713 18.2187 258.161 18.5173 258.161 18.928C258.161 19.1147 257.993 19.208 257.657 19.208ZM258.721 38.864C257.862 38.864 257.47 38.304 257.545 37.184C257.844 34.832 258.59 32.312 259.785 29.624C260.382 28.2427 261.241 26.4693 262.361 24.304C263.518 22.1013 264.937 19.5253 266.617 16.576C267.774 14.4853 268.708 12.8613 269.417 11.704C270.164 10.5467 270.948 9.688 271.769 9.128C272.478 8.64267 273.15 8.4 273.785 8.4C274.382 8.4 274.532 8.64267 274.233 9.128C273.636 9.94933 272.908 10.9947 272.049 12.264C271.228 13.496 270.276 14.952 269.193 16.632C267.774 18.872 266.393 21.1493 265.049 23.464C263.705 25.7787 262.566 27.9067 261.633 29.848C260.7 31.752 260.084 33.2827 259.785 34.44C259.673 34.888 259.617 35.2613 259.617 35.56C259.617 36.1947 259.878 36.512 260.401 36.512C261.222 36.512 262.716 35.672 264.881 33.992C264.956 33.9173 265.049 33.88 265.161 33.88C265.31 33.88 265.385 33.9733 265.385 34.16C265.385 34.384 265.31 34.5707 265.161 34.72C265.012 34.8693 264.825 35.0187 264.601 35.168C264.377 35.3547 264.116 35.56 263.817 35.784C263.518 35.9707 263.257 36.1387 263.033 36.288C262.809 36.4373 262.66 36.5493 262.585 36.624C262.1 36.96 261.689 37.24 261.353 37.464C261.017 37.7253 260.756 37.9307 260.569 38.08C259.822 38.6027 259.206 38.864 258.721 38.864ZM273.743 35.616C272.959 35.616 272.269 35.4107 271.671 35C270.701 34.2533 270.215 33.1333 270.215 31.64C270.215 30.1467 270.738 28.56 271.783 26.88C272.829 25.2 274.415 23.6507 276.543 22.232C276.917 21.9707 277.421 21.84 278.055 21.84C278.877 21.84 279.605 22.064 280.239 22.512C280.911 22.96 281.173 23.5387 281.023 24.248C280.762 25.4053 280.183 26.432 279.287 27.328C278.429 28.224 277.402 29.0267 276.207 29.736C275.05 30.408 273.855 31.0613 272.623 31.696C272.586 31.808 272.549 31.92 272.511 32.032C272.511 32.144 272.511 32.256 272.511 32.368C272.511 32.8907 272.679 33.3573 273.015 33.768C273.389 34.1413 273.893 34.328 274.527 34.328C275.013 34.328 275.423 34.2533 275.759 34.104C276.357 33.88 276.842 33.6747 277.215 33.488C277.626 33.3013 278.093 33.0213 278.615 32.648C279.138 32.2747 279.847 31.7147 280.743 30.968C281.154 30.6693 281.397 30.52 281.471 30.52C281.695 30.52 281.77 30.688 281.695 31.024C281.322 31.6213 280.669 32.2747 279.735 32.984C278.839 33.6933 277.831 34.3093 276.711 34.832C275.629 35.3547 274.639 35.616 273.743 35.616ZM272.959 30.184C273.258 30.184 273.874 29.8853 274.807 29.288C275.741 28.6907 276.618 28.0373 277.439 27.328C278.858 26.0213 279.567 25.0133 279.567 24.304C279.567 24.1173 279.511 23.9493 279.399 23.8C279.287 23.6133 279.119 23.52 278.895 23.52C278.186 23.52 276.991 24.36 275.311 26.04C274.154 27.16 273.37 28.5413 272.959 30.184ZM289.941 36.512C289.866 36.512 289.792 36.4933 289.717 36.456C289.642 36.456 289.568 36.4373 289.493 36.4C288.97 36.1387 288.634 35.7653 288.485 35.28C288.336 34.7947 288.298 34.1787 288.373 33.432C288.448 33.1333 288.522 32.6107 288.597 31.864C288.709 31.1173 288.84 30.52 288.989 30.072L286.133 32.816L284.565 34.328C283.482 35.4107 282.586 35.952 281.877 35.952C281.578 35.952 281.336 35.84 281.149 35.616C280.813 35.2053 280.645 34.7013 280.645 34.104C280.645 33.32 280.85 32.48 281.261 31.584C281.672 30.688 282.157 29.8293 282.717 29.008C283.277 28.1493 283.781 27.44 284.229 26.88C285.349 25.4987 286.432 24.416 287.477 23.632C288.56 22.848 289.68 22.456 290.837 22.456C291.472 22.456 292.088 22.568 292.685 22.792C293.32 23.016 293.898 23.3893 294.421 23.912L294.477 23.968C294.477 24.08 294.384 24.192 294.197 24.304C294.122 24.3787 294.048 24.4347 293.973 24.472C293.936 24.5093 293.898 24.5467 293.861 24.584C293.413 25.032 292.909 25.7787 292.349 26.824C291.789 27.8693 291.304 28.9707 290.893 30.128C290.482 31.248 290.277 32.2187 290.277 33.04C290.277 33.7867 290.464 34.2907 290.837 34.552C291.024 34.664 291.229 34.72 291.453 34.72C291.938 34.72 292.61 34.4213 293.469 33.824C293.506 33.7867 293.581 33.7307 293.693 33.656C293.842 33.544 294.048 33.3947 294.309 33.208C294.608 32.984 294.85 32.872 295.037 32.872C295.224 32.872 295.317 32.9467 295.317 33.096C295.317 33.32 295.168 33.5813 294.869 33.88C294.645 34.0667 294.384 34.272 294.085 34.496C293.824 34.72 293.506 34.944 293.133 35.168C292.573 35.5787 291.994 35.896 291.397 36.12C290.8 36.3813 290.314 36.512 289.941 36.512ZM283.613 32.928C284.397 32.928 285.853 31.7707 287.981 29.456C288.541 28.8213 289.045 28.224 289.493 27.664C289.941 27.0667 290.352 26.488 290.725 25.928C291.397 24.8453 291.621 24.0987 291.397 23.688C291.285 23.464 291.061 23.352 290.725 23.352C290.314 23.352 289.754 23.576 289.045 24.024C288.336 24.4347 287.608 24.976 286.861 25.648C286.152 26.32 285.498 26.992 284.901 27.664C284.49 28.1867 284.08 28.9147 283.669 29.848C283.258 30.7813 283.053 31.5467 283.053 32.144C283.053 32.6667 283.24 32.928 283.613 32.928ZM296.157 36.848C295.895 36.848 295.765 36.624 295.765 36.176C295.765 35.8027 295.839 35.3547 295.989 34.832C296.175 34.3093 296.381 33.824 296.605 33.376C296.941 32.7413 297.445 31.6213 298.117 30.016C298.901 28.2613 299.554 26.8613 300.077 25.816C300.599 24.7333 301.103 23.912 301.589 23.352C302.111 22.7173 302.522 22.4 302.821 22.4C303.007 22.4 303.157 22.5307 303.269 22.792C303.381 23.016 303.437 23.2773 303.437 23.576C303.437 23.8747 303.399 24.0613 303.325 24.136C303.026 24.4347 302.634 24.9387 302.149 25.648C301.663 26.3573 301.215 27.0667 300.805 27.776C300.021 29.232 299.629 30.3147 299.629 31.024C299.629 31.0987 299.629 31.1733 299.629 31.248C299.666 31.3227 299.703 31.3973 299.741 31.472C300.189 31.248 300.599 31.024 300.973 30.8C301.346 30.576 301.775 30.2587 302.261 29.848L305.677 26.712C306.05 26.376 306.386 26.096 306.685 25.872C306.983 25.648 307.226 25.4613 307.413 25.312C307.786 25.0507 308.141 24.92 308.477 24.92C308.775 24.92 309.13 25.1067 309.541 25.48C309.727 25.6667 309.821 26.1707 309.821 26.992V28.392C309.821 28.5413 309.802 28.6907 309.765 28.84C309.765 28.952 309.765 29.0827 309.765 29.232C309.765 29.7173 309.821 30.1467 309.933 30.52C310.082 30.856 310.287 31.024 310.549 31.024C310.661 31.024 310.81 30.9307 310.997 30.744L312.565 28.896C313.871 27.3653 314.879 26.2453 315.589 25.536C316.298 24.8267 317.101 24.3413 317.997 24.08C318.109 24.0427 318.202 24.024 318.277 24.024C318.389 23.9867 318.482 23.968 318.557 23.968C318.893 23.968 319.173 24.08 319.397 24.304C319.658 24.528 319.733 24.8267 319.621 25.2C319.471 25.7973 319.266 26.488 319.005 27.272C318.781 28.0187 318.575 28.616 318.389 29.064C317.941 29.96 317.717 30.6693 317.717 31.192C317.717 31.528 317.847 31.752 318.109 31.864C318.407 31.976 318.687 32.0507 318.949 32.088C319.247 32.1253 319.397 32.2 319.397 32.312C320.143 32.0507 320.703 31.92 321.077 31.92C321.45 31.92 321.543 32.0507 321.357 32.312C321.17 32.536 320.834 32.816 320.349 33.152C319.863 33.488 319.322 33.7867 318.725 34.048C318.165 34.272 317.661 34.384 317.213 34.384C316.279 34.384 315.813 33.88 315.813 32.872C315.813 32.3493 315.887 31.864 316.037 31.416C316.559 29.512 316.821 28.28 316.821 27.72C316.821 27.16 316.671 26.88 316.373 26.88C315.701 26.88 314.263 28.224 312.061 30.912C311.837 31.1733 311.575 31.4533 311.277 31.752C311.015 32.0507 310.717 32.3493 310.381 32.648C309.933 33.0587 309.503 33.488 309.093 33.936C308.869 34.16 308.57 34.272 308.197 34.272C307.413 34.272 306.983 33.992 306.909 33.432C306.871 32.8347 306.834 32.3493 306.797 31.976C306.797 31.5653 306.797 31.2853 306.797 31.136C306.722 30.1653 306.666 29.512 306.629 29.176C306.591 28.84 306.423 28.672 306.125 28.672C305.751 28.672 304.818 29.2693 303.325 30.464C301.309 32.0693 299.461 33.8613 297.781 35.84C297.071 36.512 296.53 36.848 296.157 36.848Z" fill="#101828"/>
</svg>
